# xmcd CD database file
#
# Track frame offsets:
#	150
#	16027
#	40671
#	63179
#	93920
#	107573
#	122734
#	141153
#
# Disc length: 2330 seconds
#
# Revision: 0
# Processed by: cddbd v1.5.1PL0 Copyright (c) Steve Scherf et al.
# Submitted via: CDex 1.51
#
DISCID=5a091808
DTITLE=タカイチアラタ - 7分間イメージトレーニング
DYEAR=1900
DGENRE=Meditative
TTITLE0=自己重要感を高める
TTITLE1=コミュニケーション能力を高める
TTITLE2=恋愛コミュニケーション
TTITLE3=特定の相手と良好な関係を築く
TTITLE4=自我2からの直感を引き出す
TTITLE5=創造性開発
TTITLE6=金運を高める
TTITLE7=自己治癒力を高める
EXTD=
EXTT0=
EXTT1=
EXTT2=
EXTT3=
EXTT4=
EXTT5=
EXTT6=
EXTT7=
PLAYORDER=
